<?xml version="1.0" encoding="UTF-8"?>
<svg id="Layer_2" data-name="Layer 2" xmlns="http://www.w3.org/2000/svg" viewBox="0 0 51.59 73.34">
  <g id="logo_3" data-name="logo 3">
    <g>
      <polygon points="0 70.27 6.82 61.6 9.41 57.27 10.93 54.07 9.64 60.46 5.46 67.84 0 70.27"/>
      <path d="M11.95,31.72s1.37-5.09,1.52-5.32.46-2.66.46-3.04-1.37-5.02-1.37-5.02l1.37-3.19v-2.89l.65-3.48,1.37-2.15.35.19.97,1.74-.99-1.22-.34.09-.37,1.04-.38,1.85.89,2.22-.26,4.9v4.26l.46,2.59.91,2.43-1.29-.84-1.33,2.28-.95.68-1.67,2.89Z"/>
      <path d="M48.87,40.43l-.91-1.71-3.31-1.08-1.29-1.92-10.12,1.33v2.62l2.05.48s5.02.34,5.25.29,3.02-.29,3.02-.29l.4,2.51.68,2.45-3.54,1.82-2.36,2.89-4.79,3.73-2.66,2.43-2.36-1.9-1.06-3.04-3.65-5.32-.24-1.75,2.51,1.14,3.05,3.08-1.75-4.9s-2.66-3.65-3.24-3.95c-.58-.3-4.97-3.27-4.97-3.27l-2.74-2.43-2.02-2.73-.08,2.13-.46,2.84-1.17,2.55-1.44,6.16,1.37,4.71,1.14,2.58,2.28,5.02.99,4.87-2.2-.76-1.82-2.28-.38,7.98,3.27,5.47,11.48,1.17,3.65-6.95,5.32-6.69,2.36-.76,3.8-3.35,4.41-7.41,2.1-4.22-.57-3.54Z"/>
      <polygon points="31.17 24.62 33.88 29.88 33.72 32.43 32.71 35.86 36.24 34.09 38.33 33.97 38.55 32.89 40.37 30.49 40.71 28.9 42.71 27.64 39.05 27.08 38.09 24.85 38.32 23.48 35.48 27.69 31.17 24.62"/>
      <polygon points="32.89 20.34 37.74 15.42 39.94 10.09 42.9 7.3 44.1 4.22 45.69 1.94 43.29 2.87 47.01 0 49.8 .57 49.57 3.88 48.63 5.16 44.33 5.82 43.19 9.47 42.62 12.09 40.28 16.82 39.08 19.62 35.72 21.38 32.89 20.34"/>
      <polygon points="45.83 7.43 50 7.21 51.59 9.89 50.85 11.57 46.4 11.82 45.09 9.52 45.83 7.43"/>
      <polygon points="50.57 12.05 49.44 15.47 48.97 18.95 46.46 15.93 43.78 14.39 44.06 12.05 47.17 14.73 50.57 12.05"/>
      <path d="M43.04,18.21v2.79s1.2,2.85,1.37,2.91,2.22.63,2.22.63l2.28,1.54,1.2,2.97-.67,2.68,2.15-3.7-.46-3.59.06-2.62-1.75-2v2.45l-2.13-.8-.86-2.51-3.42-.74Z"/>
      <polygon points="45.09 25.85 45.6 28.93 44.64 32.64 44.64 34.01 46.63 34.22 47.32 35.03 48.34 33.04 48.74 29.67 47.17 28.08 45.09 25.85"/>
      <polygon points="20.72 30.31 25.4 30.31 29.22 31.15 25.97 28.85 20.72 30.31"/>
      <polygon points="20.51 18.95 20.51 22.01 19.14 19.52 17 18.21 19.64 17.96 20.51 18.95"/>
    </g>
  </g>
</svg>