<?xml version="1.0" encoding="UTF-8"?>
<svg id="Layer_2" data-name="Layer 2" xmlns="http://www.w3.org/2000/svg" viewBox="0 0 106.29 151.73">
  <g id="logo_3" data-name="logo 3">
    <g>
      <polygon points="0 144.47 11.56 132.5 21.67 115.35 19.6 127.68 14.6 140.51 0 144.47"/>
      <polygon points="100.89 74.6 94.71 72.17 90.2 68.47 79.12 68.99 72.67 72.49 77.19 77.65 90.95 79.38 93.22 82.35 89.82 87.66 91.33 90.47 85.32 91.27 78.59 96.37 75.21 102.04 69.26 105.59 64.43 98.82 63.67 94.15 66.23 91.33 58.83 79.76 46.85 73.56 42.88 62.57 44.65 57.28 43.76 51.44 38.85 39.24 37.96 31.24 41.56 34.81 41.22 26.39 39.75 22.39 37.86 18.15 32.3 16.61 31.74 29.16 29.09 39.24 31.96 49.87 32.33 68.54 30.11 80.99 26.22 96.69 29.56 107.58 38.89 125.3 31.11 124.02 27 118.47 24.22 139.58 29.78 148.47 50.22 146.69 59.78 151.73 62.22 130.79 73.78 120.24 90.44 112.02 95.11 98.91 99.56 95.35 103.11 84.02 100.89 74.6"/>
      <polygon points="105.7 56.9 103.54 52.58 102.11 44.54 91.54 39.24 85.87 41.04 87.54 48.08 94.04 51.24 97.2 59.24 91.86 57.21 92.73 61.9 91.86 66.18 97.95 71.58 105.7 56.9"/>
      <polygon points="92.19 35.22 94.86 38.17 98.63 40.14 103.61 28.26 106.29 22.22 103.77 13.88 96.08 16.74 96.05 25.06 92.64 29.79 92.19 35.22"/>
      <polygon points="92.47 2.56 87.24 16.84 78.66 27.01 74.54 39.77 64.43 51.44 76.11 50.02 82.18 41.51 85.07 31.85 91.99 22.01 94 13.47 102.11 9.31 102.11 0 92.47 2.56"/>
      <polygon points="84.85 46.82 83.1 49.83 78.66 53.56 82.94 56.22 86.64 58.78 90.11 57.33 91.61 53.19 86.94 50.6 84.85 46.82"/>
      <polygon points="75.21 66.04 68.16 71.58 62.84 68.77 57.24 62.57 67.17 65.81 75.21 66.04"/>
    </g>
  </g>
</svg>